<svg width="26" height="26" viewBox="0 0 26 26" xmlns="http://www.w3.org/2000/svg">
  <path d="M24.25 2.17a1.2 1.2 0 11-2.4 0 1.2 1.2 0 012.4 0M25.21 5.05a1.2 1.2 0 11-2.4 0 1.2 1.2 0 012.4 0M21.36 1.2a1.2 1.2 0 11-2.4 0 1.2 1.2 0 012.4 0M22.32 4.09a1.2 1.2 0 11-2.4 0 1.2 1.2 0 012.4 0M23.29 6.98a1.2 1.2 0 11-2.41 0 1.2 1.2 0 012.4 0M19.44 3.13a1.2 1.2 0 11-2.4 0 1.2 1.2 0 012.4 0M20.4 6.01a1.2 1.2 0 11-2.4 0 1.2 1.2 0 012.4 0M21.36 8.9a1.2 1.2 0 11-2.4 0 1.2 1.2 0 012.4 0M17.51 5.05a1.2 1.2 0 11-2.4 0 1.2 1.2 0 012.4 0M18.48 7.94a1.2 1.2 0 11-2.41 0 1.2 1.2 0 012.4 0M19.44 10.83a1.2 1.2 0 11-2.4 0 1.2 1.2 0 012.4 0M15.59 6.98a1.2 1.2 0 11-2.4 0 1.2 1.2 0 012.4 0M16.55 9.86a1.2 1.2 0 11-2.4 0 1.2 1.2 0 012.4 0M17.51 12.75a1.2 1.2 0 11-2.4 0 1.2 1.2 0 012.4 0M13.66 8.9a1.2 1.2 0 11-2.4 0 1.2 1.2 0 012.4 0M14.63 11.79a1.2 1.2 0 11-2.41 0 1.2 1.2 0 012.4 0M12.7 13.71a1.2 1.2 0 11-2.4 0 1.2 1.2 0 012.4 0M10.78 15.64a1.2 1.2 0 11-2.4 0 1.2 1.2 0 012.4 0M8.85 17.56a1.2 1.2 0 11-2.4 0 1.2 1.2 0 012.4 0M7.9 14.67c0-.17-.05-.33-.12-.48a73 73 0 00-.9 1.65c.57-.1 1.01-.57 1.01-1.17M8.01 13.77c.18.1.38.18.6.18a1.19 1.19 0 00.57-2.24 376.5 376.5 0 01-1.17 2.06M10.54 12.03a1.2 1.2 0 000-2.4c-.08 0-.15.02-.22.04l-.9 1.62c.19.43.62.74 1.12.74M14.2 15.84c.43-.25.87-.49 1.3-.72a1.2 1.2 0 10-2.32-.45c0 .6.45 1.07 1.02 1.17M11.26 16.6c0 .29.11.54.28.75l1.13-.65.91-.51a1.2 1.2 0 00-1.12-.8c-.66 0-1.2.55-1.2 1.2M9.33 18.52v.02a68.6 68.6 0 001.86-1c-.19-.13-.4-.22-.65-.22-.67 0-1.2.54-1.2 1.2M5.73 18.28H5.7c-.28.69-.53 1.38-.72 2.07.59-.17 1.23-.38 1.9-.65 0-.07.04-.14.04-.21 0-.67-.54-1.2-1.2-1.2"/>
  <path d="M11.66 22.42c-3.35 3.35-7.73 3.83-10.18 1.39a6.27 6.27 0 01-1.31-1.93s2.97.42 7.27-1.36c5.2-2.16 11.76-7.44 15.53-6.68a49.83 49.83 0 00-11.3 8.58M.01 20.4l.35.05c.02 0 1.45.16 3.7-.36a20 20 0 01.77-2.2c2.15-5.18 7.43-11.75 6.67-15.51a49.75 49.75 0 01-8.58 11.3C.84 15.76-.13 18.24.02 20.4"/>
</svg>
