<svg width="27" height="27" viewBox="0 0 27 27" xmlns="http://www.w3.org/2000/svg">
  <path d="M11.12 9.11c.79-.67 2.34-1.38 3.05-.04.84 1.57-2.67 4.78-3.77 4.46-1.59-.1-.12-3.7.72-4.42m5.9-5.82c1.11-.14.8 2.2.3 2.8-.45.56-1.62 1.56-2.27.73-.78-.98 1.18-3.61 1.98-3.53M.35 20.2a9 9 0 011.05-.62c.3-.14.6-.23.85-.3l.61-.17c-.32-1.17 1.57-3.04 4.24-3.56 1.17 0 .84 1.36.3 2.27l.79-.27a6.52 6.52 0 001.75-1.26c.6-.55 1.3-1.17 2.4-1.77.57-.35 1.09-.6 1.58-.8.51-.4 1.5-1.99 2.25-3.36 2.12-2.18 2.7-3.34 2.97-5.23.41-2.76-.97-5.16-.97-5.16S15.34 2 14 3.71c-1.64 2.1-3.06 2.49-4.58 4.63C8 10.1 8.04 11.37 6.7 12.86c-.68.75-5.8 4.67-5.42 4.48A7.2 7.2 0 000 19.49c-.04.09.1.38.34.71M6.83 24.08c-.87.3-3.6.62-3.97-.54-.45-1.37 2.3-2.66 5.26-2.03 1.36.6-.36 2.25-1.3 2.57m15.3-7.28c-.85.46-2.8 1.06-3.18-.3-.44-1.6 3.34-3.81 4.28-3.3 1.42.41-.19 3.12-1.1 3.6m-10.18 4.14c-1.42-.71 1.34-3.45 2.4-3.78.98-.32 2.68-.36 2.82 1.15.15 1.77-4.32 3.35-5.22 2.63m7.15-7.63c-2.32 1.29-3.78 1.1-6.02 2.47-2 1.08-2.45 2.25-4.27 3.1-.92.42-7.17 2.03-6.74 2-.7.35-1.39.82-2.02 1.48-.19.2.2 2.62 2.12 3.23a8.67 8.67 0 007.79-1.13c1.3-.97 4.38-1.68 4.95-1.91.24-.1 2.43-.49 3.85-1.6 2.1-.99 4.39-2.33 5.39-3.96 1.45-2.37 2.67-6.22 2.52-7.53-.04-.45-5.66 2.8-7.57 3.85"/>
</svg>